<?xml version="1.0" encoding="UTF-8"?>
<svg width="150px" height="150px" viewBox="0 0 150 150" version="1.1" xmlns="http://www.w3.org/2000/svg" xmlns:xlink="http://www.w3.org/1999/xlink">
    <!-- Generator: Sketch 44.1 (41455) - http://www.bohemiancoding.com/sketch -->
    <title>Artboard</title>
    <desc>Created with Sketch.</desc>
    <defs></defs>
    <g id="Page-1" stroke="none" stroke-width="1" fill="none" fill-rule="evenodd">
        <g id="Artboard" fill="#383838">
            <path d="M75,150 C33.6956522,150 3.41060513e-13,116.304348 3.41060513e-13,75 C3.41060513e-13,33.6956522 33.6956522,-1.42108547e-14 75,-1.42108547e-14 C116.304348,-1.42108547e-14 150,33.6956522 150,75 C150,116.304348 116.304348,150 75,150 Z M79.8347107,52.4471831 C77.3570329,54.0332492 76.205818,57.4285613 75.75,62.25 L75.75,48.75 L58.5,48.75 L58.5,78.75 C58.5,82.5 57.9544388,84.2027158 57.5206612,84.9823944 C56.3895593,86.4216804 54.4647518,86.7493011 51,87 L47.25,87 L47.25,48.75 L30,48.75 L30,101.25 L55.2892562,101.25 C61.973334,101.25 66.9880616,100.052464 70.1652893,97.5528169 C72.6429671,95.9667508 73.6002165,92.5714387 74.25,87.75 L74.25,101.25 L91.5,101.25 L91.5,72 C91.5,68.25 92.0455612,65.7972842 92.4793388,65.0176056 C93.6104407,63.5783196 95.5352482,63.2506989 99,63 L102.75,63 L102.75,101.25 L120,101.25 L120,48.75 L94.7107438,48.75 C88.026666,48.75 83.0119384,49.9475365 79.8347107,52.4471831 Z" id="logo-loader"></path>
        </g>
    </g>
</svg>